<mxfile host="app.diagrams.net" modified="2021-12-04T07:40:27.278Z" agent="5.0 (Windows NT 10.0; Win64; x64) AppleWebKit/537.36 (KHTML, like Gecko) Chrome/96.0.4664.45 Safari/537.36" etag="BLwA1T7Co7XtBxa5DD5_" version="15.9.1" type="github">
  <diagram id="ev6TCaumLYetbTBm_4lM" name="Page-1">
    <mxGraphModel dx="689" dy="818" grid="1" gridSize="10" guides="1" tooltips="1" connect="1" arrows="1" fold="1" page="1" pageScale="1" pageWidth="850" pageHeight="1100" math="0" shadow="0">
      <root>
        <mxCell id="0" />
        <mxCell id="1" parent="0" />
        <mxCell id="LQL8k-GrR-42QwN9D3Ss-1" value="KELAS" style="rounded=0;whiteSpace=wrap;html=1;" parent="1" vertex="1">
          <mxGeometry x="120" y="120" width="80" height="40" as="geometry" />
        </mxCell>
        <mxCell id="LQL8k-GrR-42QwN9D3Ss-2" value="&lt;u&gt;idkelas&lt;/u&gt;" style="ellipse;whiteSpace=wrap;html=1;" parent="1" vertex="1">
          <mxGeometry x="40" y="80" width="80" height="40" as="geometry" />
        </mxCell>
        <mxCell id="LQL8k-GrR-42QwN9D3Ss-3" value="namakelas" style="ellipse;whiteSpace=wrap;html=1;" parent="1" vertex="1">
          <mxGeometry x="40" y="160" width="80" height="40" as="geometry" />
        </mxCell>
        <mxCell id="LQL8k-GrR-42QwN9D3Ss-4" value="" style="endArrow=none;html=1;rounded=0;entryX=1;entryY=0.5;entryDx=0;entryDy=0;exitX=0.25;exitY=0;exitDx=0;exitDy=0;" parent="1" source="LQL8k-GrR-42QwN9D3Ss-1" target="LQL8k-GrR-42QwN9D3Ss-2" edge="1">
          <mxGeometry width="50" height="50" relative="1" as="geometry">
            <mxPoint x="360" y="280" as="sourcePoint" />
            <mxPoint x="410" y="230" as="targetPoint" />
          </mxGeometry>
        </mxCell>
        <mxCell id="LQL8k-GrR-42QwN9D3Ss-5" value="" style="endArrow=none;html=1;rounded=0;entryX=0.25;entryY=1;entryDx=0;entryDy=0;exitX=1;exitY=0.5;exitDx=0;exitDy=0;" parent="1" source="LQL8k-GrR-42QwN9D3Ss-3" target="LQL8k-GrR-42QwN9D3Ss-1" edge="1">
          <mxGeometry width="50" height="50" relative="1" as="geometry">
            <mxPoint x="360" y="280" as="sourcePoint" />
            <mxPoint x="410" y="230" as="targetPoint" />
          </mxGeometry>
        </mxCell>
        <mxCell id="LQL8k-GrR-42QwN9D3Ss-6" style="rounded=0;orthogonalLoop=1;jettySize=auto;html=1;exitX=0;exitY=0.75;exitDx=0;exitDy=0;entryX=1;entryY=0;entryDx=0;entryDy=0;endArrow=none;endFill=0;" parent="1" source="LQL8k-GrR-42QwN9D3Ss-8" target="LQL8k-GrR-42QwN9D3Ss-11" edge="1">
          <mxGeometry relative="1" as="geometry" />
        </mxCell>
        <mxCell id="LQL8k-GrR-42QwN9D3Ss-7" style="orthogonalLoop=1;jettySize=auto;html=1;exitX=0.5;exitY=1;exitDx=0;exitDy=0;entryX=0.5;entryY=0;entryDx=0;entryDy=0;endArrow=none;endFill=0;rounded=0;" parent="1" source="LQL8k-GrR-42QwN9D3Ss-8" target="LQL8k-GrR-42QwN9D3Ss-12" edge="1">
          <mxGeometry relative="1" as="geometry" />
        </mxCell>
        <mxCell id="LQL8k-GrR-42QwN9D3Ss-68" style="edgeStyle=none;rounded=0;orthogonalLoop=1;jettySize=auto;html=1;exitX=1;exitY=0.5;exitDx=0;exitDy=0;entryX=0;entryY=0.5;entryDx=0;entryDy=0;endArrow=none;endFill=0;" parent="1" source="LQL8k-GrR-42QwN9D3Ss-8" target="LQL8k-GrR-42QwN9D3Ss-66" edge="1">
          <mxGeometry relative="1" as="geometry" />
        </mxCell>
        <mxCell id="_ZZyjqLh1WDkHjYmhh7X-3" style="edgeStyle=orthogonalEdgeStyle;rounded=0;orthogonalLoop=1;jettySize=auto;html=1;exitX=0.5;exitY=0;exitDx=0;exitDy=0;entryX=0.5;entryY=1;entryDx=0;entryDy=0;endArrow=none;endFill=0;" edge="1" parent="1" source="LQL8k-GrR-42QwN9D3Ss-8" target="_ZZyjqLh1WDkHjYmhh7X-1">
          <mxGeometry relative="1" as="geometry" />
        </mxCell>
        <mxCell id="LQL8k-GrR-42QwN9D3Ss-8" value="GURU" style="rounded=0;whiteSpace=wrap;html=1;" parent="1" vertex="1">
          <mxGeometry x="120" y="430" width="80" height="40" as="geometry" />
        </mxCell>
        <mxCell id="LQL8k-GrR-42QwN9D3Ss-9" value="&lt;u&gt;idguru&lt;/u&gt;" style="ellipse;whiteSpace=wrap;html=1;" parent="1" vertex="1">
          <mxGeometry x="10" y="380" width="80" height="40" as="geometry" />
        </mxCell>
        <mxCell id="LQL8k-GrR-42QwN9D3Ss-10" value="" style="endArrow=none;html=1;rounded=0;entryX=0;entryY=0;entryDx=0;entryDy=0;exitX=1;exitY=1;exitDx=0;exitDy=0;" parent="1" source="LQL8k-GrR-42QwN9D3Ss-9" target="LQL8k-GrR-42QwN9D3Ss-8" edge="1">
          <mxGeometry width="50" height="50" relative="1" as="geometry">
            <mxPoint x="320" y="460" as="sourcePoint" />
            <mxPoint x="370" y="410" as="targetPoint" />
          </mxGeometry>
        </mxCell>
        <mxCell id="LQL8k-GrR-42QwN9D3Ss-11" value="namaguru" style="ellipse;whiteSpace=wrap;html=1;" parent="1" vertex="1">
          <mxGeometry x="20" y="460" width="80" height="40" as="geometry" />
        </mxCell>
        <mxCell id="LQL8k-GrR-42QwN9D3Ss-12" value="password" style="ellipse;whiteSpace=wrap;html=1;" parent="1" vertex="1">
          <mxGeometry x="110" y="530" width="80" height="40" as="geometry" />
        </mxCell>
        <mxCell id="LQL8k-GrR-42QwN9D3Ss-13" style="edgeStyle=orthogonalEdgeStyle;rounded=0;orthogonalLoop=1;jettySize=auto;html=1;exitX=0.5;exitY=0;exitDx=0;exitDy=0;entryX=0.5;entryY=1;entryDx=0;entryDy=0;endArrow=none;endFill=0;" parent="1" source="LQL8k-GrR-42QwN9D3Ss-16" target="LQL8k-GrR-42QwN9D3Ss-19" edge="1">
          <mxGeometry relative="1" as="geometry" />
        </mxCell>
        <mxCell id="LQL8k-GrR-42QwN9D3Ss-14" style="orthogonalLoop=1;jettySize=auto;html=1;exitX=1;exitY=0;exitDx=0;exitDy=0;entryX=0;entryY=1;entryDx=0;entryDy=0;endArrow=none;endFill=0;rounded=0;" parent="1" source="LQL8k-GrR-42QwN9D3Ss-16" target="LQL8k-GrR-42QwN9D3Ss-20" edge="1">
          <mxGeometry relative="1" as="geometry" />
        </mxCell>
        <mxCell id="LQL8k-GrR-42QwN9D3Ss-15" style="edgeStyle=none;rounded=0;orthogonalLoop=1;jettySize=auto;html=1;exitX=0.5;exitY=1;exitDx=0;exitDy=0;entryX=0.5;entryY=0;entryDx=0;entryDy=0;endArrow=none;endFill=0;" parent="1" source="LQL8k-GrR-42QwN9D3Ss-16" target="LQL8k-GrR-42QwN9D3Ss-21" edge="1">
          <mxGeometry relative="1" as="geometry" />
        </mxCell>
        <mxCell id="LQL8k-GrR-42QwN9D3Ss-73" style="edgeStyle=none;rounded=0;orthogonalLoop=1;jettySize=auto;html=1;exitX=0;exitY=0.5;exitDx=0;exitDy=0;entryX=1;entryY=0.5;entryDx=0;entryDy=0;endArrow=none;endFill=0;" parent="1" source="LQL8k-GrR-42QwN9D3Ss-16" target="LQL8k-GrR-42QwN9D3Ss-72" edge="1">
          <mxGeometry relative="1" as="geometry" />
        </mxCell>
        <mxCell id="LQL8k-GrR-42QwN9D3Ss-16" value="PELAJAR" style="rounded=0;whiteSpace=wrap;html=1;" parent="1" vertex="1">
          <mxGeometry x="360" y="120" width="80" height="40" as="geometry" />
        </mxCell>
        <mxCell id="LQL8k-GrR-42QwN9D3Ss-17" value="&lt;u&gt;idpelajar&lt;/u&gt;" style="ellipse;whiteSpace=wrap;html=1;" parent="1" vertex="1">
          <mxGeometry x="280" y="80" width="80" height="40" as="geometry" />
        </mxCell>
        <mxCell id="LQL8k-GrR-42QwN9D3Ss-18" value="" style="endArrow=none;html=1;rounded=0;entryX=0;entryY=0.25;entryDx=0;entryDy=0;exitX=0.5;exitY=1;exitDx=0;exitDy=0;" parent="1" source="LQL8k-GrR-42QwN9D3Ss-17" target="LQL8k-GrR-42QwN9D3Ss-16" edge="1">
          <mxGeometry width="50" height="50" relative="1" as="geometry">
            <mxPoint x="560" y="150" as="sourcePoint" />
            <mxPoint x="610" y="100" as="targetPoint" />
          </mxGeometry>
        </mxCell>
        <mxCell id="LQL8k-GrR-42QwN9D3Ss-19" value="namapelajar" style="ellipse;whiteSpace=wrap;html=1;" parent="1" vertex="1">
          <mxGeometry x="360" y="40" width="80" height="40" as="geometry" />
        </mxCell>
        <mxCell id="LQL8k-GrR-42QwN9D3Ss-20" value="password" style="ellipse;whiteSpace=wrap;html=1;" parent="1" vertex="1">
          <mxGeometry x="450" y="50" width="80" height="40" as="geometry" />
        </mxCell>
        <mxCell id="LQL8k-GrR-42QwN9D3Ss-21" value="&lt;u&gt;idkelas&lt;/u&gt;" style="ellipse;whiteSpace=wrap;html=1;" parent="1" vertex="1">
          <mxGeometry x="360" y="200" width="80" height="40" as="geometry" />
        </mxCell>
        <mxCell id="LQL8k-GrR-42QwN9D3Ss-22" style="edgeStyle=none;rounded=0;orthogonalLoop=1;jettySize=auto;html=1;exitX=0.5;exitY=0;exitDx=0;exitDy=0;entryX=0.5;entryY=1;entryDx=0;entryDy=0;endArrow=none;endFill=0;" parent="1" source="LQL8k-GrR-42QwN9D3Ss-27" target="LQL8k-GrR-42QwN9D3Ss-32" edge="1">
          <mxGeometry relative="1" as="geometry" />
        </mxCell>
        <mxCell id="LQL8k-GrR-42QwN9D3Ss-23" style="edgeStyle=none;rounded=0;orthogonalLoop=1;jettySize=auto;html=1;exitX=0.25;exitY=0;exitDx=0;exitDy=0;entryX=1;entryY=0.5;entryDx=0;entryDy=0;endArrow=none;endFill=0;" parent="1" source="LQL8k-GrR-42QwN9D3Ss-27" target="LQL8k-GrR-42QwN9D3Ss-34" edge="1">
          <mxGeometry relative="1" as="geometry" />
        </mxCell>
        <mxCell id="LQL8k-GrR-42QwN9D3Ss-24" style="edgeStyle=none;rounded=0;orthogonalLoop=1;jettySize=auto;html=1;exitX=0.75;exitY=0;exitDx=0;exitDy=0;entryX=0;entryY=0.5;entryDx=0;entryDy=0;endArrow=none;endFill=0;" parent="1" source="LQL8k-GrR-42QwN9D3Ss-27" target="LQL8k-GrR-42QwN9D3Ss-29" edge="1">
          <mxGeometry relative="1" as="geometry" />
        </mxCell>
        <mxCell id="LQL8k-GrR-42QwN9D3Ss-25" style="edgeStyle=none;rounded=0;orthogonalLoop=1;jettySize=auto;html=1;exitX=1;exitY=1;exitDx=0;exitDy=0;entryX=0;entryY=0;entryDx=0;entryDy=0;endArrow=none;endFill=0;" parent="1" source="LQL8k-GrR-42QwN9D3Ss-27" target="LQL8k-GrR-42QwN9D3Ss-35" edge="1">
          <mxGeometry relative="1" as="geometry" />
        </mxCell>
        <mxCell id="LQL8k-GrR-42QwN9D3Ss-26" style="edgeStyle=none;rounded=0;orthogonalLoop=1;jettySize=auto;html=1;exitX=0.5;exitY=1;exitDx=0;exitDy=0;entryX=0.5;entryY=0;entryDx=0;entryDy=0;endArrow=none;endFill=0;" parent="1" source="LQL8k-GrR-42QwN9D3Ss-27" target="LQL8k-GrR-42QwN9D3Ss-36" edge="1">
          <mxGeometry relative="1" as="geometry" />
        </mxCell>
        <mxCell id="LQL8k-GrR-42QwN9D3Ss-27" value="KUIZ" style="rounded=0;whiteSpace=wrap;html=1;" parent="1" vertex="1">
          <mxGeometry x="640" y="120" width="80" height="40" as="geometry" />
        </mxCell>
        <mxCell id="LQL8k-GrR-42QwN9D3Ss-28" value="" style="group" parent="1" vertex="1" connectable="0">
          <mxGeometry x="720" y="80" width="80" height="40" as="geometry" />
        </mxCell>
        <mxCell id="LQL8k-GrR-42QwN9D3Ss-29" value="&lt;span&gt;idpelajar&lt;/span&gt;" style="ellipse;whiteSpace=wrap;html=1;fixDash=0;fontStyle=0" parent="LQL8k-GrR-42QwN9D3Ss-28" vertex="1">
          <mxGeometry width="80" height="40" as="geometry" />
        </mxCell>
        <mxCell id="LQL8k-GrR-42QwN9D3Ss-30" value="" style="endArrow=none;dashed=1;html=1;rounded=0;" parent="LQL8k-GrR-42QwN9D3Ss-28" edge="1">
          <mxGeometry width="50" height="50" relative="1" as="geometry">
            <mxPoint x="17" y="24.99999999999997" as="sourcePoint" />
            <mxPoint x="65" y="24.99999999999997" as="targetPoint" />
            <Array as="points" />
          </mxGeometry>
        </mxCell>
        <mxCell id="LQL8k-GrR-42QwN9D3Ss-31" value="" style="group" parent="1" vertex="1" connectable="0">
          <mxGeometry x="640" y="40" width="80" height="40" as="geometry" />
        </mxCell>
        <mxCell id="LQL8k-GrR-42QwN9D3Ss-32" value="&lt;span&gt;idsoalan&lt;/span&gt;" style="ellipse;whiteSpace=wrap;html=1;fixDash=0;fontStyle=0" parent="LQL8k-GrR-42QwN9D3Ss-31" vertex="1">
          <mxGeometry width="80" height="40" as="geometry" />
        </mxCell>
        <mxCell id="LQL8k-GrR-42QwN9D3Ss-33" value="" style="endArrow=none;dashed=1;html=1;rounded=0;" parent="LQL8k-GrR-42QwN9D3Ss-31" edge="1">
          <mxGeometry width="50" height="50" relative="1" as="geometry">
            <mxPoint x="17" y="24.99999999999997" as="sourcePoint" />
            <mxPoint x="65" y="24.99999999999997" as="targetPoint" />
            <Array as="points" />
          </mxGeometry>
        </mxCell>
        <mxCell id="LQL8k-GrR-42QwN9D3Ss-34" value="tarikh" style="ellipse;whiteSpace=wrap;html=1;" parent="1" vertex="1">
          <mxGeometry x="560" y="60" width="80" height="40" as="geometry" />
        </mxCell>
        <mxCell id="LQL8k-GrR-42QwN9D3Ss-35" value="pilih" style="ellipse;whiteSpace=wrap;html=1;" parent="1" vertex="1">
          <mxGeometry x="720" y="160" width="80" height="40" as="geometry" />
        </mxCell>
        <mxCell id="LQL8k-GrR-42QwN9D3Ss-36" value="peratus" style="ellipse;whiteSpace=wrap;html=1;" parent="1" vertex="1">
          <mxGeometry x="640" y="200" width="80" height="40" as="geometry" />
        </mxCell>
        <mxCell id="LQL8k-GrR-42QwN9D3Ss-57" style="rounded=0;orthogonalLoop=1;jettySize=auto;html=1;exitX=0.75;exitY=0;exitDx=0;exitDy=0;entryX=0.5;entryY=1;entryDx=0;entryDy=0;endArrow=none;endFill=0;" parent="1" source="LQL8k-GrR-42QwN9D3Ss-37" target="LQL8k-GrR-42QwN9D3Ss-46" edge="1">
          <mxGeometry relative="1" as="geometry" />
        </mxCell>
        <mxCell id="LQL8k-GrR-42QwN9D3Ss-58" style="edgeStyle=none;rounded=0;orthogonalLoop=1;jettySize=auto;html=1;exitX=1;exitY=0.25;exitDx=0;exitDy=0;entryX=0;entryY=1;entryDx=0;entryDy=0;endArrow=none;endFill=0;" parent="1" source="LQL8k-GrR-42QwN9D3Ss-37" target="LQL8k-GrR-42QwN9D3Ss-40" edge="1">
          <mxGeometry relative="1" as="geometry" />
        </mxCell>
        <mxCell id="LQL8k-GrR-42QwN9D3Ss-59" style="edgeStyle=none;rounded=0;orthogonalLoop=1;jettySize=auto;html=1;exitX=1;exitY=0.75;exitDx=0;exitDy=0;entryX=0;entryY=0.5;entryDx=0;entryDy=0;endArrow=none;endFill=0;" parent="1" source="LQL8k-GrR-42QwN9D3Ss-37" target="LQL8k-GrR-42QwN9D3Ss-41" edge="1">
          <mxGeometry relative="1" as="geometry" />
        </mxCell>
        <mxCell id="LQL8k-GrR-42QwN9D3Ss-60" style="edgeStyle=none;rounded=0;orthogonalLoop=1;jettySize=auto;html=1;exitX=1;exitY=1;exitDx=0;exitDy=0;entryX=0;entryY=0;entryDx=0;entryDy=0;endArrow=none;endFill=0;" parent="1" source="LQL8k-GrR-42QwN9D3Ss-37" target="LQL8k-GrR-42QwN9D3Ss-42" edge="1">
          <mxGeometry relative="1" as="geometry" />
        </mxCell>
        <mxCell id="LQL8k-GrR-42QwN9D3Ss-61" style="edgeStyle=none;rounded=0;orthogonalLoop=1;jettySize=auto;html=1;exitX=0;exitY=1;exitDx=0;exitDy=0;entryX=1;entryY=0;entryDx=0;entryDy=0;endArrow=none;endFill=0;" parent="1" source="LQL8k-GrR-42QwN9D3Ss-37" target="LQL8k-GrR-42QwN9D3Ss-44" edge="1">
          <mxGeometry relative="1" as="geometry" />
        </mxCell>
        <mxCell id="LQL8k-GrR-42QwN9D3Ss-62" style="edgeStyle=none;rounded=0;orthogonalLoop=1;jettySize=auto;html=1;exitX=0;exitY=0.75;exitDx=0;exitDy=0;entryX=1;entryY=0.5;entryDx=0;entryDy=0;endArrow=none;endFill=0;" parent="1" source="LQL8k-GrR-42QwN9D3Ss-37" target="LQL8k-GrR-42QwN9D3Ss-45" edge="1">
          <mxGeometry relative="1" as="geometry" />
        </mxCell>
        <mxCell id="LQL8k-GrR-42QwN9D3Ss-63" style="edgeStyle=none;rounded=0;orthogonalLoop=1;jettySize=auto;html=1;exitX=0.5;exitY=1;exitDx=0;exitDy=0;entryX=0.5;entryY=0;entryDx=0;entryDy=0;endArrow=none;endFill=0;" parent="1" source="LQL8k-GrR-42QwN9D3Ss-37" target="LQL8k-GrR-42QwN9D3Ss-43" edge="1">
          <mxGeometry relative="1" as="geometry" />
        </mxCell>
        <mxCell id="LQL8k-GrR-42QwN9D3Ss-64" style="edgeStyle=none;rounded=0;orthogonalLoop=1;jettySize=auto;html=1;exitX=0;exitY=0.25;exitDx=0;exitDy=0;entryX=1;entryY=1;entryDx=0;entryDy=0;endArrow=none;endFill=0;" parent="1" source="LQL8k-GrR-42QwN9D3Ss-37" target="LQL8k-GrR-42QwN9D3Ss-38" edge="1">
          <mxGeometry relative="1" as="geometry" />
        </mxCell>
        <mxCell id="LQL8k-GrR-42QwN9D3Ss-65" style="edgeStyle=none;rounded=0;orthogonalLoop=1;jettySize=auto;html=1;exitX=0.25;exitY=0;exitDx=0;exitDy=0;entryX=0.5;entryY=1;entryDx=0;entryDy=0;endArrow=none;endFill=0;" parent="1" source="LQL8k-GrR-42QwN9D3Ss-37" target="LQL8k-GrR-42QwN9D3Ss-39" edge="1">
          <mxGeometry relative="1" as="geometry" />
        </mxCell>
        <mxCell id="LQL8k-GrR-42QwN9D3Ss-80" style="edgeStyle=none;rounded=0;orthogonalLoop=1;jettySize=auto;html=1;exitX=1;exitY=0.5;exitDx=0;exitDy=0;entryX=0;entryY=0.5;entryDx=0;entryDy=0;endArrow=none;endFill=0;" parent="1" source="LQL8k-GrR-42QwN9D3Ss-37" target="LQL8k-GrR-42QwN9D3Ss-79" edge="1">
          <mxGeometry relative="1" as="geometry" />
        </mxCell>
        <mxCell id="LQL8k-GrR-42QwN9D3Ss-37" value="SOALAN" style="rounded=0;whiteSpace=wrap;html=1;" parent="1" vertex="1">
          <mxGeometry x="460" y="430" width="80" height="40" as="geometry" />
        </mxCell>
        <mxCell id="LQL8k-GrR-42QwN9D3Ss-38" value="idsoalan" style="ellipse;whiteSpace=wrap;html=1;fontStyle=4" parent="1" vertex="1">
          <mxGeometry x="330" y="380" width="80" height="40" as="geometry" />
        </mxCell>
        <mxCell id="LQL8k-GrR-42QwN9D3Ss-39" value="namasoalan" style="ellipse;whiteSpace=wrap;html=1;" parent="1" vertex="1">
          <mxGeometry x="410" y="340" width="80" height="40" as="geometry" />
        </mxCell>
        <mxCell id="LQL8k-GrR-42QwN9D3Ss-41" value="jenis" style="ellipse;whiteSpace=wrap;html=1;" parent="1" vertex="1">
          <mxGeometry x="600" y="480" width="80" height="40" as="geometry" />
        </mxCell>
        <mxCell id="LQL8k-GrR-42QwN9D3Ss-42" value="jawapan" style="ellipse;whiteSpace=wrap;html=1;" parent="1" vertex="1">
          <mxGeometry x="550" y="520" width="80" height="40" as="geometry" />
        </mxCell>
        <mxCell id="LQL8k-GrR-42QwN9D3Ss-43" value="pilihanc" style="ellipse;whiteSpace=wrap;html=1;" parent="1" vertex="1">
          <mxGeometry x="460" y="520" width="80" height="40" as="geometry" />
        </mxCell>
        <mxCell id="LQL8k-GrR-42QwN9D3Ss-44" value="pilihanb" style="ellipse;whiteSpace=wrap;html=1;" parent="1" vertex="1">
          <mxGeometry x="380" y="500" width="80" height="40" as="geometry" />
        </mxCell>
        <mxCell id="LQL8k-GrR-42QwN9D3Ss-45" value="pilihana" style="ellipse;whiteSpace=wrap;html=1;" parent="1" vertex="1">
          <mxGeometry x="320" y="460" width="80" height="40" as="geometry" />
        </mxCell>
        <mxCell id="LQL8k-GrR-42QwN9D3Ss-49" style="edgeStyle=none;rounded=0;orthogonalLoop=1;jettySize=auto;html=1;exitX=0.5;exitY=0;exitDx=0;exitDy=0;entryX=0.5;entryY=1;entryDx=0;entryDy=0;endArrow=none;endFill=0;" parent="1" source="LQL8k-GrR-42QwN9D3Ss-51" target="LQL8k-GrR-42QwN9D3Ss-52" edge="1">
          <mxGeometry relative="1" as="geometry" />
        </mxCell>
        <mxCell id="LQL8k-GrR-42QwN9D3Ss-50" style="edgeStyle=none;rounded=0;orthogonalLoop=1;jettySize=auto;html=1;exitX=0.5;exitY=1;exitDx=0;exitDy=0;entryX=0.5;entryY=0;entryDx=0;entryDy=0;endArrow=none;endFill=0;" parent="1" source="LQL8k-GrR-42QwN9D3Ss-51" target="LQL8k-GrR-42QwN9D3Ss-53" edge="1">
          <mxGeometry relative="1" as="geometry" />
        </mxCell>
        <mxCell id="LQL8k-GrR-42QwN9D3Ss-51" value="TOPIK" style="rounded=0;whiteSpace=wrap;html=1;" parent="1" vertex="1">
          <mxGeometry x="750" y="430" width="80" height="40" as="geometry" />
        </mxCell>
        <mxCell id="LQL8k-GrR-42QwN9D3Ss-52" value="idtopik" style="ellipse;whiteSpace=wrap;html=1;fontStyle=4" parent="1" vertex="1">
          <mxGeometry x="750" y="350" width="80" height="40" as="geometry" />
        </mxCell>
        <mxCell id="LQL8k-GrR-42QwN9D3Ss-53" value="namatopik" style="ellipse;whiteSpace=wrap;html=1;" parent="1" vertex="1">
          <mxGeometry x="750" y="510" width="80" height="40" as="geometry" />
        </mxCell>
        <mxCell id="LQL8k-GrR-42QwN9D3Ss-55" value="" style="group" parent="1" vertex="1" connectable="0">
          <mxGeometry x="560" y="380" width="80" height="40" as="geometry" />
        </mxCell>
        <mxCell id="LQL8k-GrR-42QwN9D3Ss-40" value="idtopik" style="ellipse;whiteSpace=wrap;html=1;" parent="LQL8k-GrR-42QwN9D3Ss-55" vertex="1">
          <mxGeometry width="80" height="40" as="geometry" />
        </mxCell>
        <mxCell id="LQL8k-GrR-42QwN9D3Ss-48" value="" style="endArrow=none;dashed=1;html=1;rounded=0;" parent="LQL8k-GrR-42QwN9D3Ss-55" edge="1">
          <mxGeometry width="50" height="50" relative="1" as="geometry">
            <mxPoint x="20" y="25" as="sourcePoint" />
            <mxPoint x="60" y="25" as="targetPoint" />
            <Array as="points" />
          </mxGeometry>
        </mxCell>
        <mxCell id="LQL8k-GrR-42QwN9D3Ss-56" value="" style="group" parent="1" vertex="1" connectable="0">
          <mxGeometry x="510" y="340" width="80" height="40" as="geometry" />
        </mxCell>
        <mxCell id="LQL8k-GrR-42QwN9D3Ss-46" value="idguru" style="ellipse;whiteSpace=wrap;html=1;" parent="LQL8k-GrR-42QwN9D3Ss-56" vertex="1">
          <mxGeometry width="80" height="40" as="geometry" />
        </mxCell>
        <mxCell id="LQL8k-GrR-42QwN9D3Ss-47" value="" style="endArrow=none;dashed=1;html=1;rounded=0;" parent="LQL8k-GrR-42QwN9D3Ss-56" edge="1">
          <mxGeometry width="50" height="50" relative="1" as="geometry">
            <mxPoint x="20" y="26" as="sourcePoint" />
            <mxPoint x="60" y="26" as="targetPoint" />
            <Array as="points" />
          </mxGeometry>
        </mxCell>
        <mxCell id="LQL8k-GrR-42QwN9D3Ss-70" style="edgeStyle=none;rounded=0;orthogonalLoop=1;jettySize=auto;html=1;exitX=1;exitY=0.5;exitDx=0;exitDy=0;entryX=0;entryY=0.5;entryDx=0;entryDy=0;endArrow=none;endFill=0;" parent="1" source="LQL8k-GrR-42QwN9D3Ss-66" target="LQL8k-GrR-42QwN9D3Ss-37" edge="1">
          <mxGeometry relative="1" as="geometry" />
        </mxCell>
        <mxCell id="LQL8k-GrR-42QwN9D3Ss-66" value="menyediakan" style="rhombus;whiteSpace=wrap;html=1;" parent="1" vertex="1">
          <mxGeometry x="230" y="430" width="130" height="40" as="geometry" />
        </mxCell>
        <mxCell id="LQL8k-GrR-42QwN9D3Ss-74" style="edgeStyle=none;rounded=0;orthogonalLoop=1;jettySize=auto;html=1;exitX=0;exitY=0.5;exitDx=0;exitDy=0;entryX=1;entryY=0.5;entryDx=0;entryDy=0;endArrow=none;endFill=0;" parent="1" source="LQL8k-GrR-42QwN9D3Ss-72" target="LQL8k-GrR-42QwN9D3Ss-1" edge="1">
          <mxGeometry relative="1" as="geometry" />
        </mxCell>
        <mxCell id="LQL8k-GrR-42QwN9D3Ss-72" value="mempunyai" style="rhombus;whiteSpace=wrap;html=1;" parent="1" vertex="1">
          <mxGeometry x="220" y="120" width="120" height="40" as="geometry" />
        </mxCell>
        <mxCell id="LQL8k-GrR-42QwN9D3Ss-75" value="1" style="text;html=1;align=center;verticalAlign=middle;resizable=0;points=[];autosize=1;strokeColor=none;fillColor=none;" parent="1" vertex="1">
          <mxGeometry x="200" y="140" width="20" height="20" as="geometry" />
        </mxCell>
        <mxCell id="LQL8k-GrR-42QwN9D3Ss-76" value="M" style="text;html=1;align=center;verticalAlign=middle;resizable=0;points=[];autosize=1;strokeColor=none;fillColor=none;" parent="1" vertex="1">
          <mxGeometry x="330" y="140" width="30" height="20" as="geometry" />
        </mxCell>
        <mxCell id="LQL8k-GrR-42QwN9D3Ss-81" style="edgeStyle=none;rounded=0;orthogonalLoop=1;jettySize=auto;html=1;exitX=1;exitY=0.5;exitDx=0;exitDy=0;entryX=0;entryY=0.5;entryDx=0;entryDy=0;endArrow=none;endFill=0;" parent="1" source="LQL8k-GrR-42QwN9D3Ss-79" target="LQL8k-GrR-42QwN9D3Ss-51" edge="1">
          <mxGeometry relative="1" as="geometry" />
        </mxCell>
        <mxCell id="LQL8k-GrR-42QwN9D3Ss-79" value="merujuk" style="rhombus;whiteSpace=wrap;html=1;" parent="1" vertex="1">
          <mxGeometry x="600" y="430" width="90" height="40" as="geometry" />
        </mxCell>
        <mxCell id="LQL8k-GrR-42QwN9D3Ss-82" value="1" style="text;html=1;align=center;verticalAlign=middle;resizable=0;points=[];autosize=1;strokeColor=none;fillColor=none;" parent="1" vertex="1">
          <mxGeometry x="730" y="430" width="20" height="20" as="geometry" />
        </mxCell>
        <mxCell id="LQL8k-GrR-42QwN9D3Ss-83" value="M" style="text;html=1;align=center;verticalAlign=middle;resizable=0;points=[];autosize=1;strokeColor=none;fillColor=none;" parent="1" vertex="1">
          <mxGeometry x="540" y="430" width="30" height="20" as="geometry" />
        </mxCell>
        <mxCell id="LQL8k-GrR-42QwN9D3Ss-87" style="edgeStyle=none;rounded=0;orthogonalLoop=1;jettySize=auto;html=1;exitX=0;exitY=0.5;exitDx=0;exitDy=0;entryX=1;entryY=0.5;entryDx=0;entryDy=0;endArrow=none;endFill=0;" parent="1" source="LQL8k-GrR-42QwN9D3Ss-86" target="LQL8k-GrR-42QwN9D3Ss-16" edge="1">
          <mxGeometry relative="1" as="geometry" />
        </mxCell>
        <mxCell id="LQL8k-GrR-42QwN9D3Ss-88" style="edgeStyle=none;rounded=0;orthogonalLoop=1;jettySize=auto;html=1;exitX=1;exitY=0.5;exitDx=0;exitDy=0;entryX=0;entryY=0.5;entryDx=0;entryDy=0;endArrow=none;endFill=0;" parent="1" source="LQL8k-GrR-42QwN9D3Ss-86" target="LQL8k-GrR-42QwN9D3Ss-27" edge="1">
          <mxGeometry relative="1" as="geometry" />
        </mxCell>
        <mxCell id="LQL8k-GrR-42QwN9D3Ss-86" value="menjawab" style="rhombus;whiteSpace=wrap;html=1;" parent="1" vertex="1">
          <mxGeometry x="500" y="120" width="80" height="40" as="geometry" />
        </mxCell>
        <mxCell id="LQL8k-GrR-42QwN9D3Ss-89" value="M" style="text;html=1;align=center;verticalAlign=middle;resizable=0;points=[];autosize=1;strokeColor=none;fillColor=none;" parent="1" vertex="1">
          <mxGeometry x="440" y="120" width="30" height="20" as="geometry" />
        </mxCell>
        <mxCell id="LQL8k-GrR-42QwN9D3Ss-93" value="M" style="text;html=1;align=center;verticalAlign=middle;resizable=0;points=[];autosize=1;strokeColor=none;fillColor=none;" parent="1" vertex="1">
          <mxGeometry x="610" y="120" width="30" height="20" as="geometry" />
        </mxCell>
        <mxCell id="_ZZyjqLh1WDkHjYmhh7X-4" style="edgeStyle=orthogonalEdgeStyle;rounded=0;orthogonalLoop=1;jettySize=auto;html=1;exitX=0.5;exitY=0;exitDx=0;exitDy=0;entryX=0.5;entryY=1;entryDx=0;entryDy=0;endArrow=none;endFill=0;" edge="1" parent="1" source="_ZZyjqLh1WDkHjYmhh7X-1" target="LQL8k-GrR-42QwN9D3Ss-1">
          <mxGeometry relative="1" as="geometry" />
        </mxCell>
        <mxCell id="_ZZyjqLh1WDkHjYmhh7X-1" value="mengurus" style="rhombus;whiteSpace=wrap;html=1;" vertex="1" parent="1">
          <mxGeometry x="110" y="280" width="100" height="40" as="geometry" />
        </mxCell>
        <mxCell id="_ZZyjqLh1WDkHjYmhh7X-5" value="M" style="text;html=1;align=center;verticalAlign=middle;resizable=0;points=[];autosize=1;strokeColor=none;fillColor=none;" vertex="1" parent="1">
          <mxGeometry x="160" y="160" width="30" height="20" as="geometry" />
        </mxCell>
        <mxCell id="_ZZyjqLh1WDkHjYmhh7X-6" value="M" style="text;html=1;align=center;verticalAlign=middle;resizable=0;points=[];autosize=1;strokeColor=none;fillColor=none;" vertex="1" parent="1">
          <mxGeometry x="160" y="410" width="30" height="20" as="geometry" />
        </mxCell>
      </root>
    </mxGraphModel>
  </diagram>
</mxfile>
